<svg id="Capa_1" enable-background="new 0 0 512 512" height="512" viewBox="0 0 512 512" width="512" xmlns="http://www.w3.org/2000/svg"><g><path d="m437.02 74.98c-48.353-48.351-112.64-74.98-181.02-74.98s-132.667 26.629-181.02 74.98c-48.351 48.353-74.98 112.64-74.98 181.02s26.629 132.667 74.98 181.02c48.353 48.351 112.64 74.98 181.02 74.98s132.667-26.629 181.02-74.98c48.351-48.353 74.98-112.64 74.98-181.02s-26.629-132.667-74.98-181.02zm-196.02 11.02c0-8.284 6.716-15 15-15 8.284 0 15 6.716 15 15v30c0 8.284-6.716 15-15 15-8.284 0-15-6.716-15-15zm-77.5 9.786c7.174-4.142 16.348-1.684 20.49 5.49l15 25.98c4.142 7.174 1.684 16.348-5.49 20.49s-16.348 1.684-20.49-5.49l-15-25.98c-4.142-7.174-1.684-16.348 5.49-20.49zm-92.5 160.214c0-8.284 6.716-15 15-15h30c8.284 0 15 6.716 15 15 0 8.284-6.716 15-15 15h-30c-8.284 0-15-6.716-15-15zm71.257 82.991-25.981 15c-7.174 4.142-16.348 1.684-20.49-5.49-4.142-7.174-1.684-16.348 5.49-20.49l25.981-15c7.174-4.142 16.348-1.684 20.49 5.49 4.142 7.174 1.684 16.348-5.49 20.49zm5.49-145.491c-4.142 7.175-13.316 9.633-20.49 5.491l-25.981-15c-7.174-4.142-9.633-13.316-5.49-20.49 4.142-7.174 13.316-9.632 20.49-5.49l25.981 15c7.174 4.14 9.632 13.314 5.49 20.489zm51.243 191.244-15 25.98c-4.142 7.174-13.316 9.632-20.49 5.49s-9.632-13.316-5.49-20.49l15-25.98c4.142-7.174 13.316-9.632 20.49-5.49s9.632 13.315 5.49 20.49zm72.01 41.256c0 8.284-6.716 15-15 15-8.284 0-15-6.716-15-15v-30c0-8.284 6.716-15 15-15 8.284 0 15 6.716 15 15zm75-75c-16.273 0-31.602-4.115-45.005-11.356-13.401 7.24-28.725 11.356-44.995 11.356-52.383 0-95-42.617-95-95s42.617-95 95-95c16.267 0 31.582 4.127 44.98 11.364 13.407-7.246 28.741-11.364 45.02-11.364 52.383 0 95 42.617 95 95s-42.617 95-95 95z"/><path d="m256 191c-35.841 0-65 29.159-65 65s29.159 65 65 65c6.381 0 12.545-.936 18.374-2.661-14.55-16.696-23.374-38.506-23.374-62.339 0-23.837 8.827-45.65 23.382-62.347-5.831-1.724-11.999-2.653-18.382-2.653z"/><circle cx="346" cy="256" r="65"/></g></svg>