<svg id="Capa_1" enable-background="new 0 0 512 512" height="512" viewBox="0 0 512 512" width="512" xmlns="http://www.w3.org/2000/svg"><g><path d="m437.02 74.98c-48.353-48.351-112.64-74.98-181.02-74.98s-132.667 26.629-181.02 74.98c-48.351 48.353-74.98 112.64-74.98 181.02s26.629 132.667 74.98 181.02c48.353 48.351 112.64 74.98 181.02 74.98s132.667-26.629 181.02-74.98c48.351-48.353 74.98-112.64 74.98-181.02s-26.629-132.667-74.98-181.02zm-181.02 407.02c-124.617 0-226-101.383-226-226s101.383-226 226-226 226 101.383 226 226-101.383 226-226 226z"/><path d="m131 256c0-8.284-6.716-15-15-15h-30c-8.284 0-15 6.716-15 15 0 8.284 6.716 15 15 15h30c8.284 0 15-6.716 15-15z"/><path d="m147.747 318.5c-4.142-7.174-13.316-9.632-20.49-5.49l-25.981 15c-7.174 4.142-9.633 13.316-5.49 20.49 4.142 7.174 13.316 9.633 20.49 5.49l25.981-15c7.174-4.141 9.632-13.315 5.49-20.49z"/><path d="m193.5 364.253c-7.174-4.142-16.348-1.684-20.49 5.49l-15 25.98c-4.142 7.174-1.684 16.348 5.49 20.49s16.348 1.684 20.49-5.49l15-25.98c4.142-7.174 1.684-16.347-5.49-20.49z"/><path d="m256 381c-8.285 0-15 6.716-15 15v30c0 8.284 6.716 15 15 15 8.284 0 15-6.716 15-15v-30c0-8.284-6.716-15-15-15z"/><path d="m256 131c8.285 0 15-6.716 15-15v-30c0-8.284-6.716-15-15-15-8.284 0-15 6.716-15 15v30c0 8.284 6.716 15 15 15z"/><path d="m173.01 142.256c4.142 7.174 13.316 9.632 20.49 5.49s9.632-13.316 5.49-20.49l-15-25.98c-4.142-7.174-13.316-9.632-20.49-5.49s-9.632 13.316-5.49 20.49z"/><path d="m142.257 173.009-25.981-15c-7.174-4.142-16.348-1.684-20.49 5.49-4.142 7.174-1.684 16.348 5.49 20.49l25.981 15c7.174 4.142 16.348 1.684 20.49-5.49 4.142-7.174 1.684-16.348-5.49-20.49z"/><path d="m346 161c-16.267 0-31.591 4.112-44.99 11.348-13.788-7.442-29.164-11.348-45.01-11.348-52.383 0-95 42.617-95 95s42.617 95 95 95c15.846 0 31.222-3.906 45.01-11.348 13.399 7.236 28.723 11.348 44.99 11.348 52.383 0 95-42.617 95-95s-42.617-95-95-95zm-71.616 157.35c-5.921 1.745-12.097 2.65-18.384 2.65-35.841 0-65-29.159-65-65s29.159-65 65-65c6.287 0 12.463.905 18.384 2.65-14.556 16.698-23.384 38.511-23.384 62.35s8.828 45.652 23.384 62.35zm71.616 2.65c-35.841 0-65-29.159-65-65s29.159-65 65-65 65 29.159 65 65-29.159 65-65 65z"/></g></svg>